<?xml version="1.0" ?><svg id="Filled_Outline_1_" style="enable-background:new 0 0 64 64;" version="1.1" viewBox="0 0 64 64" xml:space="preserve" xmlns="http://www.w3.org/2000/svg" xmlns:xlink="http://www.w3.org/1999/xlink"><title/><desc/><style type="text/css">
	.st0{fill:#18C29C;}
	.st1{fill:#18A596;}
	.st2{fill:#FFBB2C;}
	.st3{fill:#FFD18B;}
	.st4{fill:#272A56;}
	.st5{fill:#FF7BAC;}
	.st6{fill:#FD58A1;}
	.st7{fill:none;}
	.st8{fill:#FFD8B1;}
	.st9{fill:#FFFDE9;}
	.st10{fill:#FFCAA9;}
	.st11{fill:#8C6239;}
	.st12{fill:#ECECD8;}
	.st13{fill:#96C6EE;}
	.st14{fill:#29ABE2;}
	.st15{fill:#A67C52;}
	.st16{fill:#CCCCCC;}
</style><g><g><path class="st5" d="M44,18L32,30L20,18c-3.314-3.314-3.314-8.686,0-12l0,0c3.314-3.314,8.686-3.314,12,0l0,0l0,0    c3.314-3.314,8.686-3.314,12,0l0,0C47.314,9.314,47.314,14.686,44,18z"/><path class="st6" d="M20,18c6.633,0,12-5.367,12-12l0,0l0,0c3.314-3.314,8.686-3.314,12,0l0,0c3.314,3.314,3.314,8.686,0,12L32,30    L20,18z"/><path class="st5" d="M53,22l-8,8l-8-8c-2.209-2.209-2.209-5.791,0-8l0,0c2.209-2.209,5.791-2.209,8,0l0,0l0,0    c2.209-2.209,5.791-2.209,8,0l0,0C55.209,16.209,55.209,19.791,53,22z"/><polygon class="st6" points="32,30 29,34 35,34   "/><polygon class="st5" points="45,30 42,34 48,34   "/><path class="st5" d="M27,26l-8,8l-8-8c-2.209-2.209-2.209-5.791,0-8l0,0c2.209-2.209,5.791-2.209,8,0l0,0l0,0    c2.209-2.209,5.791-2.209,8,0l0,0C29.209,20.209,29.209,23.791,27,26z"/><polygon class="st5" points="19,34 16,38 22,38   "/><polygon class="st9" points="21,11 22.5,8.5 25,7 22.5,5.5 21,3 19.5,5.5 17,7 19.5,8.5   "/><path class="st6" d="M37,22c4.422,0,8-3.578,8-8l0,0c2.209-2.209,5.791-2.209,8,0l0,0c2.209,2.209,2.209,5.791,0,8l-8,8L37,22z"/><path class="st6" d="M11,26c4.422,0,8-3.578,8-8l0,0c2.209-2.209,5.791-2.209,8,0l0,0c2.209,2.209,2.209,5.791,0,8l-8,8L11,26z"/></g><path class="st4" d="M53.707,13.293c-1.692-1.692-4.072-2.26-6.245-1.746c-0.108-2.342-1.063-4.562-2.755-6.254   c-3.47-3.472-8.983-3.684-12.706-0.641c-2.725-2.238-6.42-2.752-9.669-1.376l-0.474-0.791c-0.361-0.602-1.354-0.602-1.715,0   l-1.372,2.286l-2.286,1.371C16.184,6.323,16,6.648,16,7s0.184,0.677,0.485,0.857l0.79,0.474c-1.006,2.392-0.981,5.088,0.057,7.461   c-2.369-0.886-5.137-0.402-7.04,1.5c-2.596,2.596-2.596,6.818,0,9.414l7.387,7.387L15.2,37.4c-0.228,0.303-0.264,0.708-0.095,1.047   S15.621,39,16,39h2v23h2V39h2c0.379,0,0.725-0.214,0.895-0.553s0.133-0.744-0.095-1.047l-2.48-3.306l7.18-7.18l3.18,3.18L28.2,33.4   c-0.228,0.303-0.264,0.708-0.095,1.047S28.621,35,29,35h2v17h2V35h2c0.379,0,0.725-0.214,0.895-0.553   c0.169-0.339,0.133-0.744-0.095-1.047l-2.48-3.306l5.18-5.18l5.18,5.18L41.2,33.4c-0.228,0.303-0.264,0.708-0.095,1.047   C41.275,34.786,41.621,35,42,35h2v21h2V35h2c0.379,0,0.725-0.214,0.895-0.553c0.169-0.339,0.133-0.744-0.095-1.047l-2.48-3.306   l7.387-7.387C56.303,20.111,56.303,15.889,53.707,13.293z M20.015,6.357c0.141-0.084,0.258-0.202,0.343-0.343L21,4.943l0.643,1.071   c0.084,0.141,0.202,0.259,0.343,0.343L23.056,7l-1.071,0.643c-0.141,0.084-0.258,0.202-0.343,0.343L21,9.057l-0.643-1.071   c-0.084-0.141-0.202-0.259-0.343-0.343L18.944,7L20.015,6.357z M11.707,18.707c0.908-0.908,2.101-1.361,3.293-1.361   s2.385,0.453,3.293,1.361c0.391,0.391,1.023,0.391,1.414,0c1.815-1.816,4.771-1.816,6.586,0c1.815,1.815,1.815,4.771,0,6.586   L19,32.586l-7.293-7.293C9.892,23.478,9.892,20.522,11.707,18.707z M18,37l1-1.333L20,37H18z M31,33l1-1.333L33,33H31z M32,28.586   l-3.249-3.249c1.477-2.547,1.133-5.867-1.044-8.044c-2.138-2.138-5.373-2.499-7.9-1.114c-1.34-1.982-1.627-4.45-0.856-6.65   l1.191,1.986C20.323,11.815,20.649,12,21,12s0.677-0.185,0.857-0.485l1.372-2.286l2.286-1.371C25.816,7.677,26,7.352,26,7   s-0.184-0.677-0.485-0.857l-1.999-1.199c2.672-0.933,5.735-0.278,7.777,1.763C31.48,6.895,31.735,7,32,7s0.52-0.105,0.707-0.293   c2.918-2.918,7.668-2.918,10.586,0c1.514,1.514,2.283,3.564,2.171,5.685c-0.154,0.097-0.316,0.176-0.464,0.287   c-2.606-1.964-6.336-1.758-8.707,0.614c-2.596,2.596-2.596,6.818,0,9.414l0.793,0.793L32,28.586z M44,33l1-1.333L46,33H44z    M52.293,21.293L45,28.586l-7.293-7.293c-1.815-1.815-1.815-4.771,0-6.586c0.908-0.908,2.101-1.361,3.293-1.361   s2.385,0.453,3.293,1.361c0.391,0.391,1.023,0.391,1.414,0c1.816-1.816,4.77-1.816,6.586,0   C54.108,16.522,54.108,19.478,52.293,21.293z"/></g></svg>