<?xml version="1.0" ?><svg id="Filled_Outline_1_" style="enable-background:new 0 0 64 64;" version="1.1" viewBox="0 0 64 64" xml:space="preserve" xmlns="http://www.w3.org/2000/svg" xmlns:xlink="http://www.w3.org/1999/xlink"><title/><desc/><style type="text/css">
	.st0{fill:#18C29C;}
	.st1{fill:#18A596;}
	.st2{fill:#FFBB2C;}
	.st3{fill:#FFD18B;}
	.st4{fill:#272A56;}
	.st5{fill:#FF7BAC;}
	.st6{fill:#FD58A1;}
	.st7{fill:none;}
	.st8{fill:#FFD8B1;}
	.st9{fill:#FFFDE9;}
	.st10{fill:#FFCAA9;}
	.st11{fill:#8C6239;}
	.st12{fill:#ECECD8;}
	.st13{fill:#96C6EE;}
	.st14{fill:#29ABE2;}
	.st15{fill:#A67C52;}
	.st16{fill:#CCCCCC;}
</style><g><g><path class="st5" d="M46,21L32,35L18,21c-3.866-3.866-3.866-10.134,0-14l0,0c3.866-3.866,10.134-3.866,14,0l0,0l0,0    c3.866-3.866,10.134-3.866,14,0l0,0C49.866,10.866,49.866,17.134,46,21z"/><path class="st6" d="M18,21c7.738,0,14-6.262,14-14l0,0c3.866-3.866,10.134-3.866,14,0l0,0c3.866,3.866,3.866,10.134,0,14L32,35    L18,21z"/><path class="st9" d="M17,48v1h-4v-1c0-1.657-1.343-3-3-3h0c-1.657,0-3,1.343-3,3v0c0,3.866,3.134,7,7,7h3v4h-4    C7.477,59,3,54.523,3,49v-1c0-3.866,3.134-7,7-7h0C13.866,41,17,44.134,17,48z"/><path class="st9" d="M31,61H19c-3.314,0-6-2.955-6-6.6V39h24v15.4C37,58.045,34.314,61,31,61z"/><path class="st5" d="M47,27l-8,8l-8-8c-2.209-2.209-2.209-5.791,0-8l0,0c2.209-2.209,5.791-2.209,8,0l0,0l0,0    c2.209-2.209,5.791-2.209,8,0l0,0C49.209,21.209,49.209,24.791,47,27z"/><path class="st9" d="M47,48v1h4v-1c0-1.657,1.343-3,3-3h0c1.657,0,3,1.343,3,3v0c0,3.866-3.134,7-7,7h-3v4h4    c5.523,0,10-4.477,10-10v-1c0-3.866-3.134-7-7-7h0C50.134,41,47,44.134,47,48z"/><path class="st9" d="M33,61h12c3.314,0,6-2.955,6-6.6V39H27v15.4C27,58.045,29.686,61,33,61z"/><path class="st6" d="M31,27c4.422,0,8-3.578,8-8l0,0c2.209-2.209,5.791-2.209,8,0l0,0c2.209,2.209,2.209,5.791,0,8l-8,8L31,27z"/><path class="st12" d="M27,55c13.266,0,24-7.156,24-16v16H27z"/><path class="st8" d="M45,61H19c-3.314,0-6-2.686-6-6v0h38v0C51,58.314,48.314,61,45,61z"/><path class="st12" d="M27,39c0,8.844-6.262,16-14,16h14V39z"/></g><g><path class="st4" d="M31.293,35.707C31.488,35.902,31.744,36,32,36s0.512-0.098,0.707-0.293l2.793-2.793l2.793,2.793    C38.488,35.902,38.744,36,39,36s0.512-0.098,0.707-0.293l8-8c2.285-2.285,2.556-5.831,0.817-8.417    c2.358-4.24,1.631-9.549-1.817-12.997C42.685,2.271,36.278,2.057,32,5.645c-4.278-3.589-10.686-3.374-14.707,0.648    c-4.25,4.25-4.25,11.164,0,15.414L31.293,35.707z M46.293,26.293L39,33.586l-7.293-7.293c-1.815-1.815-1.815-4.771,0-6.586    c0.908-0.908,2.101-1.361,3.293-1.361s2.385,0.453,3.293,1.361c0.391,0.391,1.023,0.391,1.414,0c1.815-1.816,4.771-1.816,6.586,0    C48.108,21.522,48.108,24.478,46.293,26.293z M18.707,7.707c3.47-3.471,9.116-3.471,12.586,0c0.391,0.391,1.023,0.391,1.414,0    c3.47-3.471,9.116-3.469,12.586,0c2.666,2.666,3.343,6.695,1.773,10.054c-2.365-1.836-5.681-1.879-8.066-0.082    c-2.605-1.962-6.334-1.757-8.707,0.614c-2.596,2.596-2.596,6.818,0,9.414l3.793,3.793L32,33.586L18.707,20.293    C15.237,16.823,15.237,11.177,18.707,7.707z"/><path class="st4" d="M54,40c-0.684,0-1.351,0.094-2,0.262V39c0-0.553-0.448-1-1-1H13c-0.552,0-1,0.447-1,1v1.262    C11.351,40.094,10.684,40,10,40c-4.411,0-8,3.589-8,8v1c0,6.065,4.935,11,11,11h1.284c1.246,1.238,2.898,2,4.716,2h12    c0.329,0,0.658-0.04,0.983-0.089C32.316,61.964,32.654,62,33,62h12c1.818,0,3.47-0.762,4.716-2H51c6.065,0,11-4.935,11-11v-1    C62,43.589,58.411,40,54,40z M12,53.65C9.657,52.815,8,50.565,8,48c0-1.103,0.897-2,2-2s2,0.897,2,2V53.65z M4,49v-1    c0-3.309,2.691-6,6-6c0.691,0,1.36,0.117,2,0.344v2.213C11.409,44.212,10.732,44,10,44c-2.206,0-4,1.794-4,4    c0,3.702,2.584,6.921,6.121,7.777c0.133,0.787,0.374,1.533,0.713,2.215C7.948,57.902,4,53.907,4,49z M19,60    c-2.26,0-4.173-1.69-4.79-4H24v-2H14V40h12v14.4c0,2.217,0.884,4.209,2.284,5.6H19z M45,60H33c-2.757,0-5-2.512-5-5.6V40h22v14H34    v2h15.79C49.173,58.31,47.26,60,45,60z M52,48c0-1.103,0.897-2,2-2s2,0.897,2,2c0,2.607-1.673,4.824-4,5.65V48z M60,49    c0,4.907-3.948,8.902-8.833,8.992c0.34-0.685,0.581-1.434,0.714-2.224C55.386,54.918,58,51.763,58,48c0-2.206-1.794-4-4-4    c-0.732,0-1.409,0.212-2,0.556v-2.213C52.64,42.117,53.309,42,54,42c3.309,0,6,2.691,6,6V49z"/><rect class="st4" height="2" width="2" x="30" y="54"/></g></g></svg>