<svg aria-hidden="true" style="position: absolute; width: 0; height: 0; overflow: hidden;" version="1.1" xmlns="http://www.w3.org/2000/svg" xmlns:xlink="http://www.w3.org/1999/xlink">
<defs>
<symbol id="icon-balloons_love" viewBox="0 0 32 32">
<path fill="#ff7bac" style="fill: var(--color1, #ff7bac)" d="M22 9l-6 6-6-6c-1.657-1.657-1.657-4.343 0-6v0c1.657-1.657 4.343-1.657 6 0v0 0c1.657-1.657 4.343-1.657 6 0v0c1.657 1.657 1.657 4.343 0 6z"></path>
<path fill="#fd58a1" style="fill: var(--color2, #fd58a1)" d="M10 9c3.316 0 6-2.684 6-6v0 0c1.657-1.657 4.343-1.657 6 0v0c1.657 1.657 1.657 4.343 0 6l-6 6-6-6z"></path>
<path fill="#ff7bac" style="fill: var(--color1, #ff7bac)" d="M26.5 11l-4 4-4-4c-1.105-1.104-1.105-2.896 0-4v0c1.105-1.104 2.895-1.104 4 0v0 0c1.105-1.104 2.895-1.104 4 0v0c1.105 1.104 1.105 2.896 0 4z"></path>
<path fill="#fd58a1" style="fill: var(--color2, #fd58a1)" d="M16 15l-1.5 2h3z"></path>
<path fill="#ff7bac" style="fill: var(--color1, #ff7bac)" d="M22.5 15l-1.5 2h3z"></path>
<path fill="#ff7bac" style="fill: var(--color1, #ff7bac)" d="M13.5 13l-4 4-4-4c-1.104-1.104-1.104-2.896 0-4v0c1.104-1.104 2.896-1.104 4 0v0 0c1.104-1.104 2.896-1.104 4 0v0c1.104 1.104 1.104 2.896 0 4z"></path>
<path fill="#ff7bac" style="fill: var(--color1, #ff7bac)" d="M9.5 17l-1.5 2h3z"></path>
<path fill="#fffde9" style="fill: var(--color3, #fffde9)" d="M10.5 5.5l0.75-1.25 1.25-0.75-1.25-0.75-0.75-1.25-0.75 1.25-1.25 0.75 1.25 0.75z"></path>
<path fill="#fd58a1" style="fill: var(--color2, #fd58a1)" d="M18.5 11c2.211 0 4-1.789 4-4v0c1.105-1.104 2.895-1.104 4 0v0c1.105 1.104 1.105 2.896 0 4l-4 4-4-4z"></path>
<path fill="#fd58a1" style="fill: var(--color2, #fd58a1)" d="M5.5 13c2.211 0 4-1.789 4-4v0c1.104-1.104 2.896-1.104 4 0v0c1.104 1.104 1.104 2.896 0 4l-4 4-4-4z"></path>
<path fill="#272a56" style="fill: var(--color4, #272a56)" d="M26.854 6.646c-0.846-0.846-2.036-1.13-3.122-0.873-0.054-1.171-0.532-2.281-1.378-3.127-1.735-1.736-4.491-1.842-6.353-0.321-1.363-1.119-3.21-1.376-4.835-0.688l-0.237-0.395c-0.181-0.301-0.677-0.301-0.857 0l-0.686 1.143-1.143 0.686c-0.15 0.091-0.242 0.253-0.242 0.429s0.092 0.339 0.242 0.429l0.395 0.237c-0.503 1.196-0.491 2.544 0.028 3.731-1.184-0.443-2.569-0.201-3.52 0.75-1.298 1.298-1.298 3.409 0 4.707l3.694 3.694-1.239 1.654c-0.114 0.151-0.132 0.354-0.048 0.523s0.258 0.276 0.448 0.276h1v11.5h1v-11.5h1c0.19 0 0.363-0.107 0.447-0.276s0.066-0.372-0.047-0.523l-1.24-1.653 3.59-3.59 1.59 1.59-1.24 1.653c-0.114 0.151-0.132 0.354-0.047 0.523s0.258 0.276 0.447 0.276h1v8.5h1v-8.5h1c0.189 0 0.363-0.107 0.448-0.276s0.067-0.372-0.047-0.523l-1.24-1.653 2.59-2.59 2.59 2.59-1.24 1.653c-0.114 0.151-0.132 0.354-0.047 0.523s0.258 0.276 0.448 0.276h1v10.5h1v-10.5h1c0.189 0 0.363-0.107 0.448-0.276s0.067-0.372-0.047-0.523l-1.24-1.653 3.694-3.694c1.298-1.298 1.298-3.409 0-4.707zM10.008 3.179c0.070-0.042 0.129-0.101 0.171-0.171l0.321-0.535 0.322 0.535c0.042 0.071 0.101 0.13 0.171 0.171l0.535 0.321-0.536 0.321c-0.070 0.042-0.129 0.101-0.171 0.171l-0.321 0.536-0.322-0.535c-0.042-0.071-0.101-0.13-0.171-0.171l-0.535-0.321 0.536-0.321zM5.854 9.354c0.454-0.454 1.050-0.681 1.646-0.681s1.192 0.226 1.646 0.681c0.195 0.195 0.511 0.195 0.707 0 0.908-0.908 2.386-0.908 3.293 0s0.908 2.386 0 3.293l-3.646 3.646-3.646-3.646c-0.907-0.908-0.907-2.386 0-3.293zM9 18.5l0.5-0.666 0.5 0.666h-1zM15.5 16.5l0.5-0.666 0.5 0.666h-1zM16 14.293l-1.624-1.624c0.739-1.274 0.566-2.934-0.522-4.022-1.069-1.069-2.687-1.25-3.95-0.557-0.67-0.991-0.813-2.225-0.428-3.325l0.595 0.993c0.091 0.15 0.254 0.242 0.429 0.242s0.338-0.093 0.428-0.242l0.686-1.143 1.143-0.686c0.15-0.091 0.242-0.253 0.242-0.429s-0.092-0.339-0.242-0.429l-0.999-0.599c1.336-0.466 2.867-0.139 3.889 0.881 0.094 0.094 0.221 0.147 0.353 0.147s0.26-0.053 0.354-0.147c1.459-1.459 3.834-1.459 5.293 0 0.757 0.757 1.142 1.782 1.085 2.843-0.077 0.048-0.158 0.088-0.232 0.144-1.303-0.982-3.168-0.879-4.354 0.307-1.298 1.298-1.298 3.409 0 4.707l0.396 0.396-2.543 2.543zM22 16.5l0.5-0.666 0.5 0.666h-1zM26.146 10.646l-3.646 3.646-3.646-3.646c-0.907-0.908-0.907-2.386 0-3.293 0.454-0.454 1.050-0.681 1.646-0.681s1.192 0.226 1.646 0.681c0.195 0.196 0.512 0.196 0.707 0 0.908-0.908 2.385-0.908 3.293 0s0.907 2.385 0 3.293z"></path>
</symbol>
<symbol id="icon-bouquet_love" viewBox="0 0 32 32">
<path fill="#ff7bac" style="fill: var(--color1, #ff7bac)" d="M19.5 8v0 0c0.552 0.553 0.552 1.447 0 2v0c-0.552 0.553-1.448 0.553-2 0v0 0c0 0.829-0.672 1.5-1.5 1.5v0c-0.829 0-1.5-0.671-1.5-1.5v0 0c-0.553 0.553-1.447 0.553-2 0v0c-0.553-0.553-0.553-1.447 0-2v0 0c-0.829 0-1.5-0.671-1.5-1.5v0c0-0.829 0.671-1.5 1.5-1.5v0 0c-0.553-0.553-0.553-1.447 0-2v0c0.553-0.553 1.447-0.553 2 0v0 0c0-0.829 0.671-1.5 1.5-1.5v0c0.828 0 1.5 0.671 1.5 1.5v0 0c0.552-0.553 1.448-0.553 2 0v0c0.552 0.553 0.552 1.447 0 2v0 0c0.828 0 1.5 0.671 1.5 1.5v0c0 0.829-0.672 1.5-1.5 1.5z"></path>
<path fill="#fd58a1" style="fill: var(--color2, #fd58a1)" d="M12.5 8c2.764 0 5-2.236 5-5v0c0.552-0.553 1.448-0.553 2 0v0c0.552 0.553 0.552 1.447 0 2v0 0c0.828 0 1.5 0.671 1.5 1.5v0c0 0.829-0.672 1.5-1.5 1.5v0 0c0.552 0.553 0.552 1.447 0 2v0c-0.552 0.553-1.448 0.553-2 0v0 0c0 0.829-0.672 1.5-1.5 1.5v0c-0.829 0-1.5-0.671-1.5-1.5v0 0c-0.553 0.553-1.447 0.553-2 0v0c-0.553-0.553-0.553-1.447 0-2v0z"></path>
<path fill="#fffde9" style="fill: var(--color3, #fffde9)" d="M16 23.5v0c-1.657 0-3 1.343-3 3v4h6v-4c0-1.657-1.343-3-3-3z"></path>
<path fill="#ececd8" style="fill: var(--color5, #ececd8)" d="M13 29c1.658 0 3-2.46 3-5.5v0c1.657 0 3 1.343 3 3v4h-6v-1.5z"></path>
<path fill="#fffde9" style="fill: var(--color3, #fffde9)" d="M16 23.5v0c-3.313 0-6-2.686-6-6v-3h12v3c0 3.314-2.686 6-6 6z"></path>
<path fill="#ececd8" style="fill: var(--color5, #ececd8)" d="M16 23.5c1.934 0 3.5-4.026 3.5-9h2.5v3c0 3.314-2.686 6-6 6v0z"></path>
<path fill="#ff7bac" style="fill: var(--color1, #ff7bac)" d="M9.5 21.977v3.046c0 0.707 0.714 1.191 1.371 0.928l3.629-1.451v-2l-3.628-1.451c-0.657-0.262-1.371 0.221-1.371 0.928z"></path>
<path fill="#ff7bac" style="fill: var(--color1, #ff7bac)" d="M22.5 21.977v3.046c0 0.707-0.715 1.191-1.372 0.928l-3.628-1.451v-2l3.628-1.451c0.657-0.262 1.372 0.221 1.372 0.928z"></path>
<path fill="#96c6ee" style="fill: var(--color6, #96c6ee)" d="M13.5 12.5v0 0c0.553 0.553 0.553 1.447 0 2v0c-0.553 0.553-1.447 0.553-2 0v0 0c0 0.829-0.671 1.5-1.5 1.5v0c-0.829 0-1.5-0.671-1.5-1.5v0 0c-0.553 0.553-1.447 0.553-2 0v0c-0.553-0.553-0.553-1.447 0-2v0 0c-0.829 0-1.5-0.671-1.5-1.5v0c0-0.829 0.671-1.5 1.5-1.5v0 0c-0.553-0.553-0.553-1.447 0-2v0c0.553-0.553 1.447-0.553 2 0v0 0c0-0.829 0.671-1.5 1.5-1.5v0c0.829 0 1.5 0.671 1.5 1.5v0 0c0.553-0.553 1.447-0.553 2 0v0c0.553 0.553 0.553 1.447 0 2v0 0c0.829 0 1.5 0.671 1.5 1.5v0c0 0.829-0.671 1.5-1.5 1.5z"></path>
<path fill="#96c6ee" style="fill: var(--color6, #96c6ee)" d="M25.5 12.5v0 0c0.552 0.553 0.552 1.447 0 2v0c-0.552 0.553-1.448 0.553-2 0v0 0c0 0.829-0.672 1.5-1.5 1.5v0c-0.828 0-1.5-0.671-1.5-1.5v0 0c-0.552 0.553-1.448 0.553-2 0v0c-0.552-0.553-0.552-1.447 0-2v0 0c-0.828 0-1.5-0.671-1.5-1.5v0c0-0.829 0.672-1.5 1.5-1.5v0 0c-0.552-0.553-0.552-1.447 0-2v0c0.552-0.553 1.448-0.553 2 0v0 0c0-0.829 0.672-1.5 1.5-1.5v0c0.828 0 1.5 0.671 1.5 1.5v0 0c0.552-0.553 1.448-0.553 2 0v0c0.552 0.553 0.552 1.447 0 2v0 0c0.828 0 1.5 0.671 1.5 1.5v0c0 0.829-0.672 1.5-1.5 1.5z"></path>
<path fill="#ffd18b" style="fill: var(--color7, #ffd18b)" d="M17 6.5c0 0.552-0.448 1-1 1s-1-0.448-1-1c0-0.552 0.448-1 1-1s1 0.448 1 1z"></path>
<path fill="#fd58a1" style="fill: var(--color2, #fd58a1)" d="M11.961 22.774l2.539 0.726-2.538 0.726c-0.482 0.137-0.962-0.224-0.962-0.726v0c0-0.501 0.479-0.863 0.962-0.726z"></path>
<path fill="#fd58a1" style="fill: var(--color2, #fd58a1)" d="M20.038 22.774l-2.538 0.726 2.538 0.726c0.482 0.137 0.962-0.224 0.962-0.726v0c0-0.501-0.48-0.863-0.962-0.726z"></path>
<path fill="#ff7bac" style="fill: var(--color1, #ff7bac)" d="M18 23.5c0 1.105-0.895 2-2 2s-2-0.895-2-2c0-1.105 0.895-2 2-2s2 0.895 2 2z"></path>
<path fill="#fd58a1" style="fill: var(--color2, #fd58a1)" d="M16 21.5c-1.105 0-2 0.895-2 2s0.895 2 2 2 2-0.895 2-2c0-1.105-0.895-2-2-2zM15.5 24c-0.55 0-1-0.45-1-1s0.45-1 1-1 1 0.45 1 1c0 0.55-0.45 1-1 1z"></path>
<path fill="#29abe2" style="fill: var(--color8, #29abe2)" d="M6.5 12.5c2.764 0 5-2.236 5-5v0c0.553-0.553 1.447-0.553 2 0v0c0.553 0.553 0.553 1.447 0 2v0 0c0.829 0 1.5 0.671 1.5 1.5v0c0 0.829-0.671 1.5-1.5 1.5v0 0c0.553 0.553 0.553 1.447 0 2v0c-0.553 0.553-1.447 0.553-2 0v0 0c0 0.829-0.671 1.5-1.5 1.5v0c-0.829 0-1.5-0.671-1.5-1.5v0 0c-0.553 0.553-1.447 0.553-2 0v0c-0.553-0.553-0.553-1.447 0-2v0z"></path>
<path fill="#29abe2" style="fill: var(--color8, #29abe2)" d="M18.5 12.5c2.764 0 5-2.236 5-5v0c0.552-0.553 1.448-0.553 2 0v0c0.552 0.553 0.552 1.447 0 2v0 0c0.828 0 1.5 0.671 1.5 1.5v0c0 0.829-0.672 1.5-1.5 1.5v0 0c0.552 0.553 0.552 1.447 0 2v0c-0.552 0.553-1.448 0.553-2 0v0 0c0 0.829-0.672 1.5-1.5 1.5v0c-0.828 0-1.5-0.671-1.5-1.5v0 0c-0.552 0.553-1.448 0.553-2 0v0c-0.552-0.553-0.552-1.447 0-2v0z"></path>
<path fill="#ffd18b" style="fill: var(--color7, #ffd18b)" d="M11 11c0 0.552-0.448 1-1 1s-1-0.448-1-1c0-0.552 0.448-1 1-1s1 0.448 1 1z"></path>
<path fill="#ffd18b" style="fill: var(--color7, #ffd18b)" d="M23 11c0 0.552-0.448 1-1 1s-1-0.448-1-1c0-0.552 0.448-1 1-1s1 0.448 1 1z"></path>
<path fill="#ff7bac" style="fill: var(--color1, #ff7bac)" d="M19.5 16v0 0c0.552 0.552 0.552 1.448 0 2v0c-0.552 0.552-1.448 0.552-2 0v0 0c0 0.828-0.672 1.5-1.5 1.5v0c-0.829 0-1.5-0.672-1.5-1.5v0 0c-0.553 0.552-1.447 0.552-2 0v0c-0.553-0.552-0.553-1.448 0-2v0 0c-0.829 0-1.5-0.671-1.5-1.5v0c0-0.829 0.671-1.5 1.5-1.5v0 0c-0.553-0.553-0.553-1.447 0-2v0c0.553-0.553 1.447-0.553 2 0v0 0c0-0.829 0.671-1.5 1.5-1.5v0c0.828 0 1.5 0.671 1.5 1.5v0 0c0.552-0.553 1.448-0.553 2 0v0c0.552 0.553 0.552 1.447 0 2v0 0c0.828 0 1.5 0.671 1.5 1.5v0c0 0.829-0.672 1.5-1.5 1.5z"></path>
<path fill="#fd58a1" style="fill: var(--color2, #fd58a1)" d="M12.5 16c2.764 0 5-2.236 5-5v0c0.552-0.553 1.448-0.553 2 0v0c0.552 0.553 0.552 1.447 0 2v0 0c0.828 0 1.5 0.671 1.5 1.5v0c0 0.829-0.672 1.5-1.5 1.5v0 0c0.552 0.552 0.552 1.448 0 2v0c-0.552 0.552-1.448 0.552-2 0v0 0c0 0.828-0.672 1.5-1.5 1.5v0c-0.829 0-1.5-0.672-1.5-1.5v0 0c-0.553 0.552-1.447 0.552-2 0v0c-0.553-0.552-0.553-1.448 0-2v0z"></path>
<path fill="#ffd18b" style="fill: var(--color7, #ffd18b)" d="M17 14.5c0 0.552-0.448 1-1 1s-1-0.448-1-1c0-0.552 0.448-1 1-1s1 0.448 1 1z"></path>
<path fill="#272a56" style="fill: var(--color4, #272a56)" d="M11.5 11c0-0.827-0.673-1.5-1.5-1.5s-1.5 0.673-1.5 1.5 0.673 1.5 1.5 1.5 1.5-0.673 1.5-1.5zM9.5 11c0-0.276 0.224-0.5 0.5-0.5s0.5 0.224 0.5 0.5-0.224 0.5-0.5 0.5-0.5-0.224-0.5-0.5z"></path>
<path fill="#272a56" style="fill: var(--color4, #272a56)" d="M27.5 11c0-0.82-0.497-1.527-1.205-1.835 0.25-0.68 0.104-1.473-0.442-2.018s-1.339-0.693-2.018-0.441c-0.308-0.708-1.014-1.205-1.835-1.205-0.247 0-0.481 0.050-0.7 0.131-0.209-0.431-0.566-0.776-1.006-0.966 0.25-0.679 0.104-1.474-0.442-2.018s-1.338-0.693-2.018-0.442c-0.308-0.708-1.015-1.205-1.835-1.205s-1.527 0.496-1.835 1.205c-0.681-0.252-1.474-0.103-2.018 0.442s-0.692 1.339-0.441 2.018c-0.44 0.191-0.797 0.536-1.006 0.966-0.218-0.082-0.453-0.131-0.699-0.131-0.82 0-1.527 0.497-1.835 1.205-0.681-0.252-1.474-0.104-2.018 0.441s-0.692 1.339-0.441 2.018c-0.708 0.307-1.205 1.014-1.205 1.835s0.497 1.527 1.205 1.835c-0.25 0.68-0.104 1.473 0.441 2.018s1.338 0.692 2.018 0.441c0.242 0.559 0.736 0.981 1.335 1.137v1.068c0 1.067 0.255 2.087 0.739 3.009-0.204 0.037-0.403 0.107-0.58 0.227-0.414 0.279-0.659 0.744-0.659 1.242v3.046c0 0.498 0.246 0.963 0.659 1.242s0.935 0.336 1.398 0.151l1.52-0.608c-0.046 0.227-0.076 0.458-0.076 0.692v4c0 0.276 0.223 0.5 0.5 0.5h6c0.276 0 0.5-0.224 0.5-0.5v-4c0-0.234-0.030-0.465-0.076-0.692l1.52 0.608c0.463 0.185 0.985 0.128 1.398-0.151s0.659-0.744 0.659-1.242v-3.046c0-0.498-0.246-0.963-0.659-1.242-0.177-0.12-0.376-0.19-0.58-0.227 0.483-0.921 0.739-1.942 0.739-3.009v-1.068c0.599-0.155 1.093-0.578 1.335-1.137 0.68 0.251 1.474 0.103 2.018-0.441s0.692-1.339 0.442-2.018c0.709-0.307 1.205-1.014 1.205-1.835zM12.5 5.5c0.202 0 0.385-0.122 0.462-0.309s0.034-0.402-0.108-0.545c-0.357-0.356-0.357-0.937 0-1.293s0.937-0.357 1.293 0c0.143 0.143 0.358 0.187 0.545 0.108 0.187-0.077 0.309-0.26 0.309-0.462 0-0.551 0.448-1 1-1s1 0.449 1 1c0 0.202 0.122 0.385 0.308 0.462s0.402 0.035 0.545-0.108c0.357-0.357 0.936-0.357 1.293 0s0.357 0.936 0 1.293c-0.143 0.143-0.186 0.358-0.108 0.545s0.26 0.309 0.462 0.309c0.457 0 0.839 0.31 0.958 0.729-0.119 0.144-0.218 0.303-0.293 0.476-0.68-0.252-1.474-0.104-2.018 0.441s-0.692 1.339-0.442 2.018c-0.163 0.071-0.313 0.171-0.453 0.283-0.343-0.278-0.777-0.448-1.252-0.448s-0.909 0.17-1.252 0.448c-0.14-0.113-0.289-0.212-0.453-0.283 0.251-0.68 0.104-1.473-0.441-2.018s-1.339-0.693-2.018-0.441c-0.075-0.173-0.175-0.332-0.293-0.476 0.119-0.419 0.501-0.729 0.958-0.729zM19.038 13.191c0.077 0.187 0.26 0.309 0.462 0.309 0.552 0 1 0.448 1 1s-0.448 1-1 1c-0.202 0-0.385 0.121-0.462 0.309s-0.035 0.402 0.108 0.545c0.357 0.357 0.357 0.936 0 1.293s-0.936 0.357-1.293 0c-0.143-0.143-0.358-0.186-0.545-0.108s-0.308 0.26-0.308 0.462c0 0.552-0.448 1-1 1s-1-0.448-1-1c0-0.202-0.121-0.385-0.309-0.462-0.062-0.026-0.127-0.038-0.191-0.038-0.13 0-0.258 0.051-0.354 0.146-0.357 0.357-0.937 0.357-1.293 0s-0.357-0.936 0-1.293c0.143-0.143 0.186-0.358 0.108-0.545s-0.26-0.309-0.462-0.309c-0.552 0-1-0.448-1-1s0.448-1 1-1c0.202 0 0.385-0.121 0.462-0.309s0.034-0.402-0.108-0.545c-0.357-0.357-0.357-0.937 0-1.293s0.937-0.357 1.293 0c0.143 0.143 0.358 0.187 0.545 0.108 0.187-0.077 0.309-0.26 0.309-0.462 0-0.552 0.448-1 1-1s1 0.448 1 1c0 0.202 0.122 0.385 0.308 0.462s0.402 0.035 0.545-0.108c0.357-0.357 0.936-0.357 1.293 0s0.357 0.937 0 1.293c-0.143 0.143-0.186 0.358-0.108 0.545zM20.753 16.055c0.221 0.177 0.474 0.304 0.747 0.375v1.071c0 1.208-0.384 2.346-1.108 3.304l-2.55 1.020c-0.457-0.503-1.11-0.825-1.842-0.825s-1.385 0.322-1.842 0.825l-2.55-1.020c-0.723-0.957-1.107-2.096-1.107-3.304v-1.071c0.273-0.071 0.525-0.198 0.746-0.375 0.139 0.113 0.293 0.209 0.459 0.28-0.251 0.68-0.104 1.474 0.441 2.018s1.338 0.692 2.018 0.442c0.307 0.709 1.014 1.205 1.835 1.205s1.527-0.497 1.835-1.205c0.68 0.251 1.474 0.103 2.018-0.442s0.692-1.339 0.442-2.018c0.166-0.072 0.32-0.168 0.459-0.28zM14.5 23.5c0-0.827 0.673-1.5 1.5-1.5s1.5 0.673 1.5 1.5-0.673 1.5-1.5 1.5-1.5-0.673-1.5-1.5zM9 14.5c0-0.202-0.121-0.385-0.309-0.462s-0.402-0.034-0.545 0.108c-0.356 0.357-0.936 0.357-1.293 0s-0.356-0.937 0-1.293c0.143-0.143 0.186-0.358 0.109-0.545s-0.26-0.309-0.462-0.309c-0.551 0-1-0.448-1-1s0.449-1 1-1c0.202 0 0.385-0.121 0.462-0.309s0.035-0.402-0.109-0.545c-0.356-0.357-0.356-0.937 0-1.293s0.936-0.356 1.293 0c0.143 0.143 0.358 0.186 0.545 0.109s0.309-0.26 0.309-0.462c0-0.551 0.448-1 1-1s1 0.449 1 1c0 0.202 0.121 0.385 0.309 0.462s0.402 0.035 0.545-0.109c0.357-0.356 0.937-0.356 1.293 0s0.357 0.936 0 1.293c-0.143 0.143-0.186 0.358-0.108 0.545s0.26 0.309 0.462 0.309c0.201 0 0.394 0.063 0.558 0.174-0.655-0.2-1.395-0.044-1.912 0.473-0.545 0.545-0.692 1.339-0.441 2.018-0.709 0.307-1.205 1.014-1.205 1.835 0 0.267 0.057 0.518 0.152 0.751-0.181 0.157-0.411 0.249-0.652 0.249-0.552 0-1-0.448-1-1zM10.686 25.488c-0.156 0.063-0.326 0.044-0.466-0.050s-0.22-0.245-0.22-0.414v-3.046c0-0.169 0.080-0.32 0.22-0.414s0.309-0.113 0.466-0.050l2.959 1.183c-0.087 0.254-0.145 0.521-0.145 0.804s0.057 0.55 0.145 0.803l-2.959 1.184zM18.5 26.5v3.5h-5v-3.5c0-0.414 0.106-0.82 0.3-1.181l0.357-0.143c0.458 0.503 1.111 0.825 1.842 0.825s1.385-0.322 1.842-0.825l0.357 0.143c0.195 0.361 0.3 0.767 0.3 1.181zM22 21.977v3.046c0 0.169-0.080 0.32-0.22 0.414s-0.309 0.113-0.466 0.050l-2.959-1.183c0.087-0.254 0.145-0.521 0.145-0.804s-0.058-0.55-0.145-0.803l2.959-1.183c0.157-0.063 0.326-0.044 0.466 0.050 0.14 0.093 0.22 0.245 0.22 0.413zM25.5 12c-0.202 0-0.385 0.121-0.462 0.309s-0.035 0.402 0.108 0.545c0.357 0.357 0.357 0.937 0 1.293s-0.936 0.357-1.293 0c-0.142-0.143-0.358-0.187-0.545-0.108-0.187 0.077-0.308 0.26-0.308 0.462 0 0.552-0.448 1-1 1-0.241 0-0.471-0.092-0.652-0.249 0.095-0.232 0.152-0.485 0.152-0.751 0-0.82-0.497-1.527-1.205-1.835 0.25-0.68 0.104-1.473-0.442-2.018-0.517-0.517-1.256-0.672-1.912-0.473 0.164-0.111 0.357-0.174 0.558-0.174 0.202 0 0.385-0.121 0.462-0.309s0.035-0.402-0.108-0.545c-0.357-0.357-0.357-0.937 0-1.293s0.936-0.356 1.293 0c0.143 0.143 0.358 0.186 0.545 0.109s0.308-0.26 0.308-0.462c0-0.551 0.448-1 1-1s1 0.449 1 1c0 0.202 0.122 0.385 0.308 0.462s0.402 0.035 0.545-0.109c0.357-0.356 0.936-0.356 1.293 0s0.357 0.936 0 1.293c-0.143 0.143-0.186 0.358-0.108 0.545s0.26 0.309 0.462 0.309c0.552 0 1 0.448 1 1s-0.448 1-1 1z"></path>
<path fill="#272a56" style="fill: var(--color4, #272a56)" d="M22 9.5c-0.827 0-1.5 0.673-1.5 1.5s0.673 1.5 1.5 1.5 1.5-0.673 1.5-1.5-0.673-1.5-1.5-1.5zM22 11.5c-0.276 0-0.5-0.224-0.5-0.5s0.224-0.5 0.5-0.5 0.5 0.224 0.5 0.5-0.224 0.5-0.5 0.5z"></path>
<path fill="#272a56" style="fill: var(--color4, #272a56)" d="M16 13c-0.827 0-1.5 0.673-1.5 1.5s0.673 1.5 1.5 1.5 1.5-0.673 1.5-1.5-0.673-1.5-1.5-1.5zM16 15c-0.276 0-0.5-0.224-0.5-0.5s0.224-0.5 0.5-0.5 0.5 0.224 0.5 0.5-0.224 0.5-0.5 0.5z"></path>
<path fill="#272a56" style="fill: var(--color4, #272a56)" d="M16 8c0.827 0 1.5-0.673 1.5-1.5s-0.673-1.5-1.5-1.5-1.5 0.673-1.5 1.5 0.673 1.5 1.5 1.5zM16 6c0.276 0 0.5 0.224 0.5 0.5s-0.224 0.5-0.5 0.5-0.5-0.224-0.5-0.5 0.224-0.5 0.5-0.5z"></path>
</symbol>
<symbol id="icon-coffee_love" viewBox="0 0 32 32">
<path fill="#ff7bac" style="fill: var(--color1, #ff7bac)" d="M23 10.5l-7 7-7-7c-1.933-1.933-1.933-5.067 0-7v0c1.933-1.933 5.067-1.933 7 0v0 0c1.933-1.933 5.067-1.933 7 0v0c1.933 1.933 1.933 5.067 0 7z"></path>
<path fill="#fd58a1" style="fill: var(--color2, #fd58a1)" d="M9 10.5c3.869 0 7-3.131 7-7v0c1.933-1.933 5.067-1.933 7 0v0c1.933 1.933 1.933 5.067 0 7l-7 7-7-7z"></path>
<path fill="#fffde9" style="fill: var(--color3, #fffde9)" d="M8.5 24v0.5h-2v-0.5c0-0.828-0.671-1.5-1.5-1.5v0c-0.829 0-1.5 0.672-1.5 1.5v0c0 1.933 1.567 3.5 3.5 3.5h1.5v2h-2c-2.761 0-5-2.239-5-5v-0.5c0-1.933 1.567-3.5 3.5-3.5v0c1.933 0 3.5 1.567 3.5 3.5z"></path>
<path fill="#fffde9" style="fill: var(--color3, #fffde9)" d="M15.5 30.5h-6c-1.657 0-3-1.477-3-3.3v-7.7h12v7.7c0 1.823-1.343 3.3-3 3.3z"></path>
<path fill="#ff7bac" style="fill: var(--color1, #ff7bac)" d="M23.5 13.5l-4 4-4-4c-1.104-1.104-1.104-2.896 0-4v0c1.105-1.104 2.895-1.104 4 0v0 0c1.105-1.104 2.895-1.104 4 0v0c1.105 1.104 1.105 2.896 0 4z"></path>
<path fill="#fffde9" style="fill: var(--color3, #fffde9)" d="M23.5 24v0.5h2v-0.5c0-0.828 0.672-1.5 1.5-1.5v0c0.828 0 1.5 0.672 1.5 1.5v0c0 1.933-1.567 3.5-3.5 3.5h-1.5v2h2c2.761 0 5-2.239 5-5v-0.5c0-1.933-1.567-3.5-3.5-3.5v0c-1.933 0-3.5 1.567-3.5 3.5z"></path>
<path fill="#fffde9" style="fill: var(--color3, #fffde9)" d="M16.5 30.5h6c1.657 0 3-1.477 3-3.3v-7.7h-12v7.7c0 1.823 1.343 3.3 3 3.3z"></path>
<path fill="#fd58a1" style="fill: var(--color2, #fd58a1)" d="M15.5 13.5c2.211 0 4-1.789 4-4v0c1.105-1.104 2.895-1.104 4 0v0c1.105 1.104 1.105 2.896 0 4l-4 4-4-4z"></path>
<path fill="#ececd8" style="fill: var(--color5, #ececd8)" d="M13.5 27.5c6.633 0 12-3.578 12-8v8h-12z"></path>
<path fill="#ffd8b1" style="fill: var(--color9, #ffd8b1)" d="M22.5 30.5h-13c-1.657 0-3-1.343-3-3v0h19c0 1.657-1.343 3-3 3z"></path>
<path fill="#ececd8" style="fill: var(--color5, #ececd8)" d="M13.5 19.5c0 4.422-3.131 8-7 8h7v-8z"></path>
<path fill="#272a56" style="fill: var(--color4, #272a56)" d="M15.646 17.854c0.098 0.098 0.226 0.146 0.354 0.146s0.256-0.049 0.354-0.146l1.396-1.396 1.396 1.396c0.098 0.098 0.226 0.146 0.354 0.146s0.256-0.049 0.354-0.146l4-4c1.143-1.143 1.278-2.915 0.409-4.209 1.179-2.12 0.816-4.774-0.909-6.498-2.011-2.011-5.215-2.118-7.354-0.324-2.139-1.794-5.343-1.687-7.354 0.324-2.125 2.125-2.125 5.582 0 7.707l7 7zM23.146 13.146l-3.646 3.646-3.646-3.646c-0.908-0.908-0.908-2.386 0-3.293 0.454-0.454 1.050-0.681 1.646-0.681s1.192 0.226 1.646 0.681c0.195 0.195 0.512 0.195 0.707 0 0.907-0.908 2.386-0.908 3.293 0s0.907 2.386 0 3.293zM9.354 3.853c1.735-1.736 4.558-1.736 6.293 0 0.195 0.195 0.512 0.195 0.707 0 1.735-1.736 4.558-1.735 6.293 0 1.333 1.333 1.671 3.348 0.887 5.027-1.183-0.918-2.84-0.939-4.033-0.041-1.302-0.981-3.167-0.878-4.354 0.307-1.298 1.298-1.298 3.409 0 4.707l1.896 1.896-1.043 1.043-6.646-6.646c-1.735-1.735-1.735-4.558 0-6.293z"></path>
<path fill="#272a56" style="fill: var(--color4, #272a56)" d="M27 20c-0.342 0-0.675 0.047-1 0.131v-0.631c0-0.276-0.224-0.5-0.5-0.5h-19c-0.276 0-0.5 0.224-0.5 0.5v0.631c-0.325-0.084-0.658-0.131-1-0.131-2.205 0-4 1.794-4 4v0.5c0 3.032 2.467 5.5 5.5 5.5h0.642c0.623 0.619 1.449 1 2.358 1h6c0.165 0 0.329-0.020 0.492-0.044 0.167 0.026 0.336 0.044 0.508 0.044h6c0.909 0 1.735-0.381 2.358-1h0.642c3.032 0 5.5-2.468 5.5-5.5v-0.5c0-2.206-1.794-4-4-4zM6 26.825c-1.171-0.418-2-1.543-2-2.825 0-0.552 0.449-1 1-1s1 0.448 1 1v2.825zM2 24.5v-0.5c0-1.654 1.345-3 3-3 0.346 0 0.68 0.058 1 0.172v1.107c-0.295-0.172-0.634-0.279-1-0.279-1.103 0-2 0.897-2 2 0 1.851 1.292 3.46 3.061 3.889 0.067 0.393 0.187 0.767 0.356 1.108-2.443-0.045-4.417-2.043-4.417-4.496zM9.5 30c-1.13 0-2.087-0.845-2.395-2h4.895v-1h-5v-7h6v7.2c0 1.108 0.442 2.104 1.142 2.8h-4.642zM22.5 30h-6c-1.379 0-2.5-1.256-2.5-2.8v-7.2h11v7h-8v1h7.895c-0.308 1.155-1.265 2-2.395 2zM26 24c0-0.552 0.448-1 1-1s1 0.448 1 1c0 1.303-0.837 2.412-2 2.825v-2.825zM30 24.5c0 2.453-1.974 4.451-4.416 4.496 0.17-0.343 0.291-0.717 0.357-1.112 1.753-0.425 3.059-2.003 3.059-3.884 0-1.103-0.897-2-2-2-0.366 0-0.704 0.106-1 0.278v-1.107c0.32-0.113 0.654-0.172 1-0.172 1.654 0 3 1.346 3 3v0.5z"></path>
<path fill="#272a56" style="fill: var(--color4, #272a56)" d="M15 27h1v1h-1v-1z"></path>
</symbol>
<symbol id="icon-heart_icon" viewBox="0 0 32 32">
<path fill="#292d32" style="fill: var(--color10, #292d32)" d="M29.333 11.587c0 1.587-0.253 3.053-0.693 4.413h-25.28c-0.44-1.36-0.693-2.827-0.693-4.413 0-4.12 3.32-7.453 7.413-7.453 2.413 0 4.573 1.173 5.92 2.973 1.347-1.8 3.507-2.973 5.92-2.973 4.093 0 7.413 3.333 7.413 7.453z"></path>
<path fill="#292d32" style="fill: var(--color10, #292d32)" opacity="0.4" d="M28.639 16c-2.107 6.667-8.6 10.653-11.813 11.747-0.453 0.16-1.2 0.16-1.653 0-3.213-1.093-9.707-5.080-11.813-11.747h25.28z"></path>
</symbol>
<symbol id="icon-heart_love" viewBox="0 0 32 32">
<path fill="#ff7bac" style="fill: var(--color1, #ff7bac)" d="M23.5 17.5l-9 9-9-9c-2.486-2.486-2.486-6.514 0-9v0c2.486-2.486 6.514-2.486 9 0v0 0c2.486-2.486 6.514-2.486 9 0v0c2.486 2.486 2.486 6.514 0 9z"></path>
<path fill="#fd58a1" style="fill: var(--color2, #fd58a1)" d="M5.5 17.5c4.974 0 9-4.026 9-9v0c2.486-2.486 6.514-2.486 9 0v0c2.486 2.486 2.486 6.514 0 9l-9 9-9-9z"></path>
<path fill="#ff7bac" style="fill: var(--color1, #ff7bac)" d="M27 20.5l-6 6-6-6c-1.657-1.657-1.657-4.343 0-6v0c1.657-1.657 4.343-1.657 6 0v0 0c1.657-1.657 4.343-1.657 6 0v0c1.657 1.657 1.657 4.343 0 6z"></path>
<path fill="#fd58a1" style="fill: var(--color2, #fd58a1)" d="M15 20.5c3.317 0 6-2.683 6-6v0c1.657-1.657 4.343-1.657 6 0v0c1.657 1.657 1.657 4.343 0 6l-6 6-6-6z"></path>
<path fill="#272a56" style="fill: var(--color4, #272a56)" d="M28.308 11.982c-0.337-0.264-0.699-0.496-1.076-0.694l-0.462 0.886c0.323 0.168 0.634 0.368 0.923 0.595l0.616-0.787z"></path>
<path fill="#272a56" style="fill: var(--color4, #272a56)" d="M29.052 12.654l-0.721 0.693c1.076 1.122 1.67 2.597 1.67 4.153h1c0-1.816-0.692-3.537-1.948-4.846z"></path>
<path fill="#272a56" style="fill: var(--color4, #272a56)" d="M8.117 5.223l-0.234-0.972c-4.052 0.978-6.883 4.575-6.883 8.749h1c0-3.71 2.516-6.909 6.117-7.777z"></path>
<path fill="#272a56" style="fill: var(--color4, #272a56)" d="M10 5v-1c-0.353 0-0.709 0.021-1.058 0.061l0.116 0.993c0.31-0.036 0.627-0.054 0.942-0.054z"></path>
<path fill="#272a56" style="fill: var(--color4, #272a56)" d="M8.146 17.854l0.707-0.707 6.5 6.5-0.707 0.707-6.5-6.5z"></path>
<path fill="#272a56" style="fill: var(--color4, #272a56)" d="M6.646 16.353l0.707-0.707 0.75 0.75-0.707 0.707-0.75-0.75z"></path>
<path fill="#272a56" style="fill: var(--color4, #272a56)" d="M25.852 13.136c0.037-1.864-0.674-3.664-1.999-4.989-2.561-2.561-6.66-2.671-9.354-0.33-2.694-2.341-6.792-2.231-9.354 0.33-2.676 2.677-2.676 7.031 0 9.707l9 9c0.098 0.098 0.226 0.146 0.354 0.146s0.256-0.049 0.354-0.146l2.896-2.896 2.896 2.896c0.098 0.098 0.226 0.146 0.354 0.146s0.256-0.049 0.354-0.146l6-6c1.849-1.849 1.849-4.858 0-6.707-0.444-0.444-0.956-0.78-1.501-1.011zM14.5 25.793l-8.646-8.646c-2.287-2.287-2.287-6.006 0-8.293s6.006-2.286 8.293 0c0.195 0.195 0.511 0.195 0.707 0 2.287-2.286 6.006-2.286 8.293 0 1.067 1.068 1.674 2.495 1.715 3.989-1.335-0.245-2.756 0.080-3.86 0.984-1.861-1.522-4.618-1.415-6.354 0.32-1.849 1.849-1.849 4.858 0 6.707l2.396 2.396-2.543 2.543zM26.646 20.146l-5.646 5.646-5.646-5.646c-1.459-1.459-1.459-3.834 0-5.293 0.73-0.729 1.688-1.095 2.646-1.095s1.916 0.365 2.646 1.095c0.195 0.195 0.512 0.195 0.707 0 1.459-1.459 3.834-1.459 5.293 0s1.459 3.834 0 5.293z"></path>
</symbol>
<symbol id="icon-love_heart" viewBox="0 0 32 32">
<path fill="#ff7bac" style="fill: var(--color1, #ff7bac)" d="M26.5 17.5l-9 9-9-9c-2.486-2.486-2.486-6.514 0-9v0c2.486-2.486 6.514-2.486 9 0v0 0c2.486-2.486 6.514-2.486 9 0v0c2.486 2.486 2.486 6.514 0 9z"></path>
<path fill="#fd58a1" style="fill: var(--color2, #fd58a1)" d="M8.5 17.5c4.974 0 9-4.026 9-9v0c2.486-2.486 6.514-2.486 9 0v0c2.486 2.486 2.486 6.514 0 9l-9 9-9-9z"></path>
<path fill="#ff7bac" style="fill: var(--color1, #ff7bac)" d="M20.5 20.5l-6 6-6-6c-1.657-1.657-1.657-4.343 0-6v0c1.657-1.657 4.343-1.657 6 0v0 0c1.657-1.657 4.343-1.657 6 0v0c1.657 1.657 1.657 4.343 0 6z"></path>
<path fill="#fd58a1" style="fill: var(--color2, #fd58a1)" d="M8.5 20.5c3.316 0 6-2.683 6-6v0c1.657-1.657 4.343-1.657 6 0v0c1.657 1.657 1.657 4.343 0 6l-6 6-6-6z"></path>
<path fill="#fffde9" style="fill: var(--color3, #fffde9)" d="M20.5 23.5l1.5-1.5 4.25 4.25-1.5 1.5-4.25-4.25z"></path>
<path fill="#96c6ee" style="fill: var(--color6, #96c6ee)" d="M24 28.5l5 2-2-5z"></path>
<path fill="#fffde9" style="fill: var(--color3, #fffde9)" d="M4.5 7.5l1.5-1.5 13 13-1.5 1.5-13-13z"></path>
<path fill="#29abe2" style="fill: var(--color8, #29abe2)" d="M7 8.5v-2.5l-3-3v2.5h-2.5l3 3z"></path>
<path fill="#272a56" style="fill: var(--color4, #272a56)" d="M23.058 4.061c-0.349-0.040-0.705-0.062-1.058-0.062v1c0.314 0 0.631 0.019 0.942 0.054l0.116-0.993z"></path>
<path fill="#272a56" style="fill: var(--color4, #272a56)" d="M24.117 4.25l-0.235 0.972c3.602 0.869 6.117 4.067 6.117 7.777h1c0-4.175-2.831-7.772-6.883-8.749z"></path>
<path fill="#272a56" style="fill: var(--color4, #272a56)" d="M27.465 25.314c-0.063-0.156-0.199-0.27-0.364-0.304s-0.335 0.017-0.454 0.136l-0.396 0.397-3.543-3.543 4.146-4.146c2.677-2.677 2.677-7.031 0-9.707-2.561-2.561-6.66-2.671-9.354-0.33-2.567-2.232-6.41-2.231-8.983-0.006l-1.017-1.017v-0.793c0-0.133-0.053-0.26-0.146-0.354l-3-3c-0.144-0.143-0.358-0.187-0.545-0.108s-0.308 0.26-0.308 0.462v2h-2c-0.202 0-0.385 0.122-0.462 0.308s-0.034 0.402 0.109 0.545l3 3c0.093 0.094 0.221 0.146 0.354 0.146h0.793l1.375 1.375c-0.774 1.874-0.677 4.027 0.274 5.828-0.452 1.601-0.053 3.393 1.205 4.651l6 6c0.098 0.098 0.226 0.146 0.354 0.146s0.256-0.049 0.354-0.146l1.147-1.146 1.146 1.146c0.098 0.098 0.226 0.146 0.354 0.146s0.256-0.049 0.354-0.146l2.646-2.646 3.543 3.543-0.396 0.396c-0.119 0.119-0.17 0.29-0.136 0.454s0.148 0.302 0.304 0.364l5 2c0.060 0.024 0.123 0.035 0.186 0.035 0.13 0 0.258-0.051 0.354-0.146 0.142-0.142 0.185-0.354 0.111-0.54l-2-5zM2.707 6h1.293c0.276 0 0.5-0.224 0.5-0.5v-1.293l2 2v1.793h-1.793l-2-2zM7 9c0.276 0 0.5-0.224 0.5-0.5v-0.293l10.793 10.793-0.793 0.793-10.793-10.793h0.293zM7.446 11.152l2.058 2.058c-0.499 0.233-0.962 0.543-1.356 0.937-0.255 0.255-0.471 0.534-0.657 0.827-0.438-1.23-0.455-2.581-0.045-3.822zM14.5 25.793l-5.646-5.646c-1.459-1.459-1.459-3.834 0-5.293 0.4-0.4 0.884-0.695 1.412-0.88l6.88 6.88c0.098 0.098 0.226 0.146 0.354 0.146s0.256-0.049 0.354-0.146l1.5-1.5c0.195-0.195 0.195-0.512 0-0.707l-4.12-4.12c1.466-1.119 3.573-1.012 4.913 0.327 1.459 1.459 1.459 3.833 0 5.293l-5.646 5.646zM17.5 25.793l-0.793-0.793 7.146-7.146-0.707-0.707-0.948 0.948c0.176-1.404-0.27-2.872-1.345-3.948-1.73-1.729-4.473-1.841-6.335-0.335l-5.294-5.294c2.302-1.941 5.754-1.831 7.922 0.335 0.195 0.195 0.512 0.195 0.707 0 2.287-2.286 6.006-2.286 8.293 0s2.287 6.006 0 8.293l-8.646 8.646zM21.207 23.5l0.793-0.793 3.543 3.543-0.793 0.793-3.543-3.543zM24.89 28.317l1.927-1.927 1.285 3.213-3.212-1.285z"></path>
<path fill="#272a56" style="fill: var(--color4, #272a56)" d="M23.896 16.397l0.75-0.75 0.707 0.707-0.75 0.75-0.707-0.707z"></path>
<path fill="#272a56" style="fill: var(--color4, #272a56)" d="M13.646 23.647l2.5-2.5 0.707 0.707-2.5 2.5-0.707-0.707z"></path>
<path fill="#272a56" style="fill: var(--color4, #272a56)" d="M5.518 17.038l-0.997-0.076c-0.013 0.177-0.021 0.357-0.021 0.538 0 1.925 0.765 3.718 2.154 5.052l0.692-0.721c-1.191-1.143-1.846-2.68-1.846-4.33 0-0.155 0.006-0.309 0.018-0.462z"></path>
<path fill="#272a56" style="fill: var(--color4, #272a56)" d="M5.96 15.193l-0.923-0.386c-0.145 0.348-0.263 0.71-0.349 1.078l0.973 0.23c0.075-0.314 0.175-0.624 0.3-0.922z"></path>
</symbol>
<symbol id="icon-love_lock" viewBox="0 0 32 32">
<path fill="#ececd8" style="fill: var(--color5, #ececd8)" d="M14.5 14.5v0c0.829 0 1.5 0.671 1.5 1.5v7.5h2v-7.5c0-1.933-1.567-3.5-3.5-3.5v0c-0.553 0-1 0.447-1 1v0c0 0.553 0.447 1 1 1z"></path>
<path fill="#ff7bac" style="fill: var(--color1, #ff7bac)" d="M25 12.5l-9 9-9-9c-2.486-2.486-2.486-6.514 0-9v0c2.486-2.486 6.514-2.486 9 0v0 0c2.486-2.486 6.514-2.486 9 0v0c2.486 2.486 2.486 6.514 0 9z"></path>
<path fill="#fd58a1" style="fill: var(--color2, #fd58a1)" d="M7 12.5c4.974 0 9-4.026 9-9v0c2.486-2.486 6.514-2.486 9 0v0c2.486 2.486 2.486 6.514 0 9l-9 9-9-9z"></path>
<path fill="#ff7bac" style="fill: var(--color1, #ff7bac)" d="M19 15.5l-6 6-6-6c-1.657-1.657-1.657-4.343 0-6v0c1.657-1.657 4.343-1.657 6 0v0 0c1.657-1.657 4.343-1.657 6 0v0c1.657 1.657 1.657 4.343 0 6z"></path>
<path fill="#ffd18b" style="fill: var(--color7, #ffd18b)" d="M14.5 30.5v0c-2.486 0-4.5-2.014-4.5-4.5v-2.5h9v2.5c0 2.486-2.014 4.5-4.5 4.5z"></path>
<path fill="#ffbb2c" style="fill: var(--color11, #ffbb2c)" d="M19 23.5v2.5c0 2.486-2.014 4.5-4.5 4.5v0 0l0.236-0.118c1.694-0.847 2.764-2.579 2.764-4.472v-2.41h1.5z"></path>
<path fill="#ffbb2c" style="fill: var(--color11, #ffbb2c)" d="M15.5 26.5c0 0.552-0.448 1-1 1s-1-0.448-1-1c0-0.552 0.448-1 1-1s1 0.448 1 1z"></path>
<path fill="#fd58a1" style="fill: var(--color2, #fd58a1)" d="M7 15.5c3.316 0 6-2.684 6-6v0c1.657-1.657 4.343-1.657 6 0v0c1.657 1.657 1.657 4.343 0 6l-6 6-6-6z"></path>
<path fill="#fffde9" style="fill: var(--color3, #fffde9)" d="M14.5 14.5v0c-0.829 0-1.5 0.671-1.5 1.5v7.5h-2v-7.5c0-1.933 1.567-3.5 3.5-3.5v0c0.553 0 1 0.447 1 1v0c0 0.553-0.447 1-1 1z"></path>
<path fill="#272a56" style="fill: var(--color4, #272a56)" d="M25.354 12.854c2.677-2.677 2.677-7.031 0-9.707-2.561-2.562-6.66-2.671-9.354-0.329-2.693-2.342-6.792-2.232-9.354 0.329-2.151 2.15-2.635 5.393-1.209 8.074-0.444 1.596-0.043 3.38 1.209 4.633l3.854 3.854v3.293h-0.5c-0.276 0-0.5 0.224-0.5 0.5v2.5c0 2.757 2.243 5 5 5s5-2.243 5-5v-2.5c0-0.276-0.224-0.5-0.5-0.5h-0.5v-3.293l6.854-6.854zM7.354 3.853c2.287-2.286 6.006-2.286 8.293 0 0.195 0.195 0.512 0.195 0.707 0 2.286-2.286 6.007-2.286 8.293 0s2.286 6.006 0 8.293l-8.646 8.646-0.793-0.793 4.146-4.146c1.849-1.849 1.849-4.858 0-6.707-1.735-1.736-4.492-1.843-6.354-0.32-1.861-1.523-4.619-1.416-6.354 0.32-0.259 0.259-0.478 0.542-0.663 0.84-0.771-2.119-0.266-4.496 1.37-6.133zM13.5 23v-1.293l1-1 1 1v1.293h-2zM7.354 15.146c-1.459-1.46-1.459-3.834 0-5.293s3.834-1.459 5.293 0c0.195 0.195 0.511 0.195 0.707 0 1.46-1.459 3.834-1.459 5.293 0s1.459 3.834 0 5.293l-5.146 5.146v-4.293c0-0.552 0.448-1 1-1 0.827 0 1.5-0.673 1.5-1.5s-0.673-1.5-1.5-1.5c-2.206 0-4 1.794-4 4v2.293l-3.146-3.146zM11.5 16c0-1.655 1.345-3 3-3 0.275 0 0.5 0.224 0.5 0.5s-0.225 0.5-0.5 0.5c-1.103 0-2 0.897-2 2v7h-1v-7zM18.5 26c0 2.206-1.794 4-4 4s-4-1.794-4-4v-2h8v2zM17.5 23h-1v-1.293l1-1v2.293z"></path>
<path fill="#272a56" style="fill: var(--color4, #272a56)" d="M14 27.908v1.092h1v-1.092c0.581-0.207 1-0.757 1-1.408 0-0.827-0.673-1.5-1.5-1.5s-1.5 0.673-1.5 1.5c0 0.651 0.419 1.201 1 1.408zM14.5 26c0.275 0 0.5 0.224 0.5 0.5s-0.225 0.5-0.5 0.5-0.5-0.224-0.5-0.5 0.225-0.5 0.5-0.5z"></path>
</symbol>
</defs>
</svg>
