<?xml version="1.0" ?><svg id="Filled_Outline_1_" style="enable-background:new 0 0 64 64;" version="1.1" viewBox="0 0 64 64" xml:space="preserve" xmlns="http://www.w3.org/2000/svg" xmlns:xlink="http://www.w3.org/1999/xlink"><title/><desc/><style type="text/css">
	.st0{fill:#18C29C;}
	.st1{fill:#18A596;}
	.st2{fill:#FFBB2C;}
	.st3{fill:#FFD18B;}
	.st4{fill:#272A56;}
	.st5{fill:#FF7BAC;}
	.st6{fill:#FD58A1;}
	.st7{fill:none;}
	.st8{fill:#FFD8B1;}
	.st9{fill:#FFFDE9;}
	.st10{fill:#FFCAA9;}
	.st11{fill:#8C6239;}
	.st12{fill:#ECECD8;}
	.st13{fill:#96C6EE;}
	.st14{fill:#29ABE2;}
	.st15{fill:#A67C52;}
	.st16{fill:#CCCCCC;}
</style><g><g><path class="st5" d="M53,35L35,53L17,35c-4.971-4.971-4.971-13.029,0-18l0,0c4.971-4.971,13.029-4.971,18,0l0,0l0,0    c4.971-4.971,13.029-4.971,18,0l0,0C57.971,21.971,57.971,30.029,53,35z"/><path class="st6" d="M17,35c9.949,0,18-8.051,18-18l0,0c4.971-4.971,13.029-4.971,18,0l0,0c4.971,4.971,4.971,13.029,0,18L35,53    L17,35z"/><path class="st5" d="M41,41L29,53L17,41c-3.314-3.314-3.314-8.686,0-12l0,0c3.314-3.314,8.686-3.314,12,0l0,0l0,0    c3.314-3.314,8.686-3.314,12,0l0,0C44.314,32.314,44.314,37.686,41,41z"/><path class="st6" d="M17,41c6.633,0,12-5.367,12-12l0,0c3.314-3.314,8.686-3.314,12,0l0,0c3.314,3.314,3.314,8.686,0,12L29,53    L17,41z"/><rect class="st9" height="12.021" transform="matrix(0.7071 -0.7071 0.7071 0.7071 -21.4858 47.6287)" width="4.243" x="44.629" y="43.74"/><polygon class="st13" points="48,57 58,61 54,51   "/><rect class="st9" height="36.77" transform="matrix(0.7071 -0.7071 0.7071 0.7071 -11.8553 24.3787)" width="4.243" x="21.379" y="8.115"/><polygon class="st14" points="14,17 14,12 8,6 8,11 3,11 9,17   "/></g><g><path class="st4" d="M46.116,8.123C45.418,8.042,44.706,8,44,8v2c0.629,0,1.263,0.037,1.884,0.109L46.116,8.123z"/><path class="st4" d="M48.234,8.501l-0.469,1.944C54.969,12.183,60,18.579,60,26h2C62,17.651,56.339,10.456,48.234,8.501z"/><path class="st4" d="M54.929,50.628c-0.125-0.312-0.398-0.541-0.728-0.608c-0.329-0.066-0.67,0.035-0.908,0.272L52.5,51.086    L45.414,44l8.293-8.293c5.353-5.353,5.353-14.062,0-19.414c-5.122-5.122-13.319-5.342-18.707-0.66    c-5.135-4.465-12.82-4.461-17.966-0.013L15,13.586V12c0-0.265-0.105-0.52-0.293-0.707l-6-6C8.42,5.006,7.991,4.92,7.617,5.076    C7.244,5.231,7,5.596,7,6v4H3c-0.404,0-0.769,0.244-0.924,0.617c-0.155,0.374-0.069,0.804,0.217,1.09l6,6    C8.48,17.895,8.735,18,9,18h1.586l2.75,2.75c-1.547,3.749-1.354,8.054,0.547,11.656c-0.905,3.201-0.105,6.787,2.41,9.301l12,12    C28.488,53.902,28.744,54,29,54s0.512-0.098,0.707-0.293L32,51.414l2.293,2.293C34.488,53.902,34.744,54,35,54    s0.512-0.098,0.707-0.293L41,48.414l7.086,7.086l-0.793,0.793c-0.238,0.238-0.34,0.579-0.272,0.908    c0.067,0.329,0.296,0.603,0.608,0.728l10,4C57.749,61.977,57.875,62,58,62c0.26,0,0.516-0.102,0.707-0.293    c0.283-0.283,0.37-0.707,0.222-1.079L54.929,50.628z M5.414,12H8c0.552,0,1-0.448,1-1V8.414l4,4V16H9.414L5.414,12z M14,18    c0.552,0,1-0.448,1-1v-0.586L36.586,38L35,39.586L13.414,18H14z M14.891,22.305l4.115,4.115c-0.999,0.466-1.924,1.085-2.712,1.874    c-0.51,0.51-0.943,1.068-1.313,1.654C14.106,27.487,14.071,24.787,14.891,22.305z M29,51.586L17.707,40.293    c-2.918-2.918-2.918-7.667,0-10.586c0.8-0.8,1.769-1.391,2.825-1.761l13.761,13.761C34.488,41.902,34.744,42,35,42    s0.512-0.098,0.707-0.293l3-3c0.391-0.391,0.391-1.023,0-1.414l-8.24-8.24c2.932-2.237,7.147-2.024,9.826,0.654    c2.918,2.918,2.918,7.667,0,10.586L29,51.586z M35,51.586L33.414,50l8.293-8.293l6-6l-1.414-1.414l-1.896,1.896    c0.352-2.808-0.539-5.744-2.69-7.896c-3.459-3.459-8.947-3.681-12.669-0.669L18.45,17.036c4.603-3.881,11.508-3.662,15.843,0.671    c0.391,0.391,1.023,0.391,1.414,0c4.573-4.572,12.013-4.572,16.586,0c4.573,4.573,4.573,12.013,0,16.586l-9,9l-3,3L35,51.586z     M42.414,47L44,45.414l7.086,7.086L49.5,54.086L42.414,47z M49.779,56.635l3.855-3.855l2.57,6.426L49.779,56.635z"/><rect class="st4" height="2" transform="matrix(0.7071 -0.7071 0.7071 0.7071 -8.7328 44.4173)" width="2.121" x="48.189" y="31.75"/><rect class="st4" height="2" transform="matrix(0.7071 -0.7071 0.7071 0.7071 -23.2401 34.8934)" width="7.071" x="26.964" y="44.5"/><path class="st4" d="M11.035,34.077l-1.994-0.153C9.014,34.279,9,34.638,9,35c0,3.849,1.53,7.436,4.308,10.103l1.385-1.443    C12.312,41.374,11,38.299,11,35C11,34.689,11.012,34.381,11.035,34.077z"/><path class="st4" d="M11.919,30.385l-1.846-0.771c-0.29,0.695-0.525,1.42-0.699,2.155l1.946,0.46    C11.47,31.601,11.671,30.98,11.919,30.385z"/></g></g></svg>