<?xml version="1.0" ?><svg id="Filled_Outline_1_" style="enable-background:new 0 0 64 64;" version="1.1" viewBox="0 0 64 64" xml:space="preserve" xmlns="http://www.w3.org/2000/svg" xmlns:xlink="http://www.w3.org/1999/xlink"><title/><desc/><style type="text/css">
	.st0{fill:#18C29C;}
	.st1{fill:#18A596;}
	.st2{fill:#FFBB2C;}
	.st3{fill:#FFD18B;}
	.st4{fill:#272A56;}
	.st5{fill:#FF7BAC;}
	.st6{fill:#FD58A1;}
	.st7{fill:none;}
	.st8{fill:#FFD8B1;}
	.st9{fill:#FFFDE9;}
	.st10{fill:#FFCAA9;}
	.st11{fill:#8C6239;}
	.st12{fill:#ECECD8;}
	.st13{fill:#96C6EE;}
	.st14{fill:#29ABE2;}
	.st15{fill:#A67C52;}
	.st16{fill:#CCCCCC;}
</style><g><g><path class="st12" d="M29,29L29,29c1.657,0,3,1.343,3,3v15h4V32c0-3.866-3.134-7-7-7h0c-1.105,0-2,0.895-2,2v0    C27,28.105,27.895,29,29,29z"/><path class="st5" d="M50,25L32,43L14,25c-4.971-4.971-4.971-13.029,0-18l0,0c4.971-4.971,13.029-4.971,18,0l0,0l0,0    c4.971-4.971,13.029-4.971,18,0l0,0C54.971,11.971,54.971,20.029,50,25z"/><path class="st6" d="M14,25c9.949,0,18-8.051,18-18l0,0c4.971-4.971,13.029-4.971,18,0l0,0c4.971,4.971,4.971,13.029,0,18L32,43    L14,25z"/><path class="st5" d="M38,31L26,43L14,31c-3.314-3.314-3.314-8.686,0-12l0,0c3.314-3.314,8.686-3.314,12,0l0,0l0,0    c3.314-3.314,8.686-3.314,12,0l0,0C41.314,22.314,41.314,27.686,38,31z"/><path class="st3" d="M29,61L29,61c-4.971,0-9-4.029-9-9v-5h18v5C38,56.971,33.971,61,29,61z"/><path class="st2" d="M38,47v5c0,4.971-4.029,9-9,9h0l0,0l0.472-0.236C32.86,59.07,35,55.607,35,51.82V47H38z"/><circle class="st2" cx="29" cy="53" r="2"/><g><g><path class="st6" d="M14,31c6.633,0,12-5.367,12-12l0,0c3.314-3.314,8.686-3.314,12,0l0,0c3.314,3.314,3.314,8.686,0,12L26,43      L14,31z"/></g></g><path class="st9" d="M29,29L29,29c-1.657,0-3,1.343-3,3v15h-4V32c0-3.866,3.134-7,7-7h0c1.105,0,2,0.895,2,2v0    C31,28.105,30.105,29,29,29z"/></g><g><path class="st4" d="M50.707,25.707c5.353-5.353,5.353-14.062,0-19.414C45.586,1.17,37.387,0.95,32,5.634    C26.614,0.95,18.416,1.17,13.293,6.293c-4.301,4.3-5.269,10.785-2.418,16.148c-0.889,3.192-0.087,6.761,2.418,9.266L21,39.414V46    h-1c-0.552,0-1,0.447-1,1v5c0,5.514,4.486,10,10,10c5.514,0,10-4.486,10-10v-5c0-0.553-0.447-1-1-1h-1v-6.586L50.707,25.707z     M14.707,7.707c4.573-4.572,12.013-4.572,16.586,0c0.391,0.391,1.023,0.391,1.414,0c4.572-4.572,12.014-4.572,16.586,0    c4.572,4.573,4.572,12.013,0,16.586L32,41.586L30.414,40l8.293-8.293c3.698-3.698,3.698-9.716,0-13.414    c-3.471-3.472-8.985-3.685-12.707-0.64c-3.722-3.046-9.237-2.832-12.707,0.64c-0.518,0.518-0.955,1.084-1.327,1.68    C10.425,15.735,11.433,10.981,14.707,7.707z M27,46v-2.586l2-2l2,2V46H27z M14.707,30.293c-2.918-2.919-2.918-7.667,0-10.586    c2.919-2.918,7.667-2.918,10.586,0c0.391,0.391,1.023,0.391,1.414,0c2.919-2.918,7.668-2.918,10.586,0    c2.918,2.919,2.918,7.667,0,10.586L27,40.586V32c0-1.103,0.897-2,2-2c1.654,0,3-1.346,3-3s-1.346-3-3-3c-4.411,0-8,3.589-8,8    v4.586L14.707,30.293z M23,32c0-3.309,2.691-6,6-6c0.551,0,1,0.448,1,1s-0.449,1-1,1c-2.206,0-4,1.794-4,4v14h-2V32z M37,52    c0,4.411-3.589,8-8,8s-8-3.589-8-8v-4h16V52z M35,46h-2v-2.586l2-2V46z"/><path class="st4" d="M28,55.816V58h2v-2.184c1.161-0.414,2-1.514,2-2.816c0-1.654-1.346-3-3-3s-3,1.346-3,3    C26,54.302,26.839,55.402,28,55.816z M29,52c0.551,0,1,0.448,1,1s-0.449,1-1,1s-1-0.448-1-1S28.449,52,29,52z"/></g></g></svg>